<mxfile host="app.diagrams.net" agent="Mozilla/5.0 (Windows NT 10.0; Win64; x64) AppleWebKit/537.36 (KHTML, like Gecko) Chrome/131.0.0.0 Safari/537.36" version="25.0.3">
  <diagram id="C5RBs43oDa-KdzZeNtuy" name="Page-1">
    <mxGraphModel dx="1434" dy="1949" grid="1" gridSize="10" guides="1" tooltips="1" connect="1" arrows="1" fold="1" page="1" pageScale="1" pageWidth="827" pageHeight="1169" math="0" shadow="0">
      <root>
        <mxCell id="WIyWlLk6GJQsqaUBKTNV-0" />
        <mxCell id="WIyWlLk6GJQsqaUBKTNV-1" parent="WIyWlLk6GJQsqaUBKTNV-0" />
        <mxCell id="mqPW916UplCSB3VOztNP-8" value="" style="rounded=0;html=1;jettySize=auto;orthogonalLoop=1;fontSize=11;endArrow=block;endFill=0;endSize=8;strokeWidth=1;shadow=0;labelBackgroundColor=none;edgeStyle=orthogonalEdgeStyle;" parent="WIyWlLk6GJQsqaUBKTNV-1" source="mqPW916UplCSB3VOztNP-12" target="mqPW916UplCSB3VOztNP-15" edge="1">
          <mxGeometry relative="1" as="geometry" />
        </mxCell>
        <mxCell id="mqPW916UplCSB3VOztNP-9" style="edgeStyle=orthogonalEdgeStyle;rounded=0;orthogonalLoop=1;jettySize=auto;html=1;startArrow=block;startFill=1;endArrow=none;endFill=0;exitX=0;exitY=0.5;exitDx=0;exitDy=0;" parent="WIyWlLk6GJQsqaUBKTNV-1" source="mqPW916UplCSB3VOztNP-12" edge="1">
          <mxGeometry relative="1" as="geometry">
            <mxPoint x="40" y="-1050" as="targetPoint" />
            <Array as="points">
              <mxPoint x="60" y="-1050" />
              <mxPoint x="60" y="-1050" />
            </Array>
          </mxGeometry>
        </mxCell>
        <mxCell id="mqPW916UplCSB3VOztNP-10" value="start()" style="edgeLabel;html=1;align=center;verticalAlign=middle;resizable=0;points=[];" parent="mqPW916UplCSB3VOztNP-9" vertex="1" connectable="0">
          <mxGeometry x="0.1307" y="-1" relative="1" as="geometry">
            <mxPoint x="-21" y="-9" as="offset" />
          </mxGeometry>
        </mxCell>
        <mxCell id="mqPW916UplCSB3VOztNP-12" value="Read from camera&lt;div&gt;&lt;span style=&quot;font-size: 11px; text-wrap-mode: nowrap; background-color: rgb(255, 255, 255);&quot;&gt;status = waiting&lt;/span&gt;&lt;/div&gt;" style="rounded=1;whiteSpace=wrap;html=1;fontSize=12;glass=0;strokeWidth=1;shadow=0;" parent="WIyWlLk6GJQsqaUBKTNV-1" vertex="1">
          <mxGeometry x="109.97" y="-1070" width="120" height="40" as="geometry" />
        </mxCell>
        <mxCell id="mqPW916UplCSB3VOztNP-13" value="Y&lt;span style=&quot;background-color: initial;&quot;&gt;es&amp;nbsp;&lt;/span&gt;" style="rounded=0;html=1;jettySize=auto;orthogonalLoop=1;fontSize=11;endArrow=block;endFill=0;endSize=8;strokeWidth=1;shadow=0;labelBackgroundColor=none;edgeStyle=orthogonalEdgeStyle;entryX=0;entryY=0.5;entryDx=0;entryDy=0;" parent="WIyWlLk6GJQsqaUBKTNV-1" source="mqPW916UplCSB3VOztNP-15" target="mqPW916UplCSB3VOztNP-22" edge="1">
          <mxGeometry x="-0.0714" y="10" relative="1" as="geometry">
            <mxPoint as="offset" />
          </mxGeometry>
        </mxCell>
        <mxCell id="mqPW916UplCSB3VOztNP-14" value="No" style="edgeStyle=orthogonalEdgeStyle;rounded=0;html=1;jettySize=auto;orthogonalLoop=1;fontSize=11;endArrow=block;endFill=0;endSize=8;strokeWidth=1;shadow=0;labelBackgroundColor=none;entryX=0.5;entryY=1;entryDx=0;entryDy=0;exitX=0.5;exitY=1;exitDx=0;exitDy=0;" parent="WIyWlLk6GJQsqaUBKTNV-1" source="mqPW916UplCSB3VOztNP-15" target="mqPW916UplCSB3VOztNP-12" edge="1">
          <mxGeometry y="10" relative="1" as="geometry">
            <mxPoint as="offset" />
            <mxPoint x="269.97" y="-939.9999999999999" as="targetPoint" />
            <Array as="points">
              <mxPoint x="340" y="-990" />
              <mxPoint x="170" y="-990" />
            </Array>
          </mxGeometry>
        </mxCell>
        <mxCell id="mqPW916UplCSB3VOztNP-15" value="&lt;font&gt;Found QR Code?&lt;/font&gt;" style="rhombus;whiteSpace=wrap;html=1;shadow=0;fontFamily=Helvetica;fontSize=12;align=center;strokeWidth=1;spacing=6;spacingTop=-4;" parent="WIyWlLk6GJQsqaUBKTNV-1" vertex="1">
          <mxGeometry x="290" y="-1090" width="100" height="80" as="geometry" />
        </mxCell>
        <mxCell id="mqPW916UplCSB3VOztNP-16" value="Yes" style="rounded=0;html=1;jettySize=auto;orthogonalLoop=1;fontSize=11;endArrow=block;endFill=0;endSize=8;strokeWidth=1;shadow=0;labelBackgroundColor=none;edgeStyle=orthogonalEdgeStyle;" parent="WIyWlLk6GJQsqaUBKTNV-1" source="mqPW916UplCSB3VOztNP-18" target="mqPW916UplCSB3VOztNP-20" edge="1">
          <mxGeometry x="0.3333" y="20" relative="1" as="geometry">
            <mxPoint as="offset" />
          </mxGeometry>
        </mxCell>
        <mxCell id="mqPW916UplCSB3VOztNP-17" value="No" style="edgeStyle=orthogonalEdgeStyle;rounded=0;html=1;jettySize=auto;orthogonalLoop=1;fontSize=11;endArrow=block;endFill=0;endSize=8;strokeWidth=1;shadow=0;labelBackgroundColor=none;entryX=0.5;entryY=1;entryDx=0;entryDy=0;" parent="WIyWlLk6GJQsqaUBKTNV-1" source="mqPW916UplCSB3VOztNP-18" target="mqPW916UplCSB3VOztNP-22" edge="1">
          <mxGeometry y="10" relative="1" as="geometry">
            <mxPoint as="offset" />
            <mxPoint x="269.97" y="-705.0000000000001" as="targetPoint" />
            <Array as="points">
              <mxPoint x="660" y="-990" />
              <mxPoint x="510" y="-990" />
            </Array>
          </mxGeometry>
        </mxCell>
        <mxCell id="mqPW916UplCSB3VOztNP-18" value="Received finished request?" style="rhombus;whiteSpace=wrap;html=1;shadow=0;fontFamily=Helvetica;fontSize=12;align=center;strokeWidth=1;spacing=6;spacingTop=-4;" parent="WIyWlLk6GJQsqaUBKTNV-1" vertex="1">
          <mxGeometry x="610" y="-1090" width="100" height="80" as="geometry" />
        </mxCell>
        <mxCell id="mqPW916UplCSB3VOztNP-19" style="edgeStyle=orthogonalEdgeStyle;rounded=0;orthogonalLoop=1;jettySize=auto;html=1;entryX=0.5;entryY=0;entryDx=0;entryDy=0;exitX=0.5;exitY=0;exitDx=0;exitDy=0;" parent="WIyWlLk6GJQsqaUBKTNV-1" source="mqPW916UplCSB3VOztNP-20" target="mqPW916UplCSB3VOztNP-12" edge="1">
          <mxGeometry relative="1" as="geometry">
            <Array as="points">
              <mxPoint x="810" y="-1120" />
              <mxPoint x="170" y="-1120" />
            </Array>
          </mxGeometry>
        </mxCell>
        <mxCell id="mqPW916UplCSB3VOztNP-20" value="Save file,&lt;div&gt;status=waiting&lt;/div&gt;" style="rounded=1;whiteSpace=wrap;html=1;fontSize=12;glass=0;strokeWidth=1;shadow=0;" parent="WIyWlLk6GJQsqaUBKTNV-1" vertex="1">
          <mxGeometry x="750" y="-1070" width="120" height="40" as="geometry" />
        </mxCell>
        <mxCell id="mqPW916UplCSB3VOztNP-21" style="edgeStyle=orthogonalEdgeStyle;rounded=0;orthogonalLoop=1;jettySize=auto;html=1;entryX=0;entryY=0.5;entryDx=0;entryDy=0;" parent="WIyWlLk6GJQsqaUBKTNV-1" source="mqPW916UplCSB3VOztNP-22" target="mqPW916UplCSB3VOztNP-18" edge="1">
          <mxGeometry relative="1" as="geometry" />
        </mxCell>
        <mxCell id="mqPW916UplCSB3VOztNP-22" value="Read data&lt;div&gt;&lt;span style=&quot;font-size: 11px; text-wrap-mode: nowrap;&quot;&gt;status=receiving data&lt;/span&gt;&lt;/div&gt;" style="rounded=1;whiteSpace=wrap;html=1;fontSize=12;glass=0;strokeWidth=1;shadow=0;" parent="WIyWlLk6GJQsqaUBKTNV-1" vertex="1">
          <mxGeometry x="450" y="-1070" width="120" height="40" as="geometry" />
        </mxCell>
        <mxCell id="mqPW916UplCSB3VOztNP-23" value="" style="rounded=0;html=1;jettySize=auto;orthogonalLoop=1;fontSize=11;endArrow=block;endFill=0;endSize=8;strokeWidth=1;shadow=0;labelBackgroundColor=none;edgeStyle=orthogonalEdgeStyle;" parent="WIyWlLk6GJQsqaUBKTNV-1" source="mqPW916UplCSB3VOztNP-26" target="mqPW916UplCSB3VOztNP-29" edge="1">
          <mxGeometry relative="1" as="geometry" />
        </mxCell>
        <mxCell id="mqPW916UplCSB3VOztNP-24" style="edgeStyle=orthogonalEdgeStyle;rounded=0;orthogonalLoop=1;jettySize=auto;html=1;startArrow=block;startFill=1;endArrow=none;endFill=0;exitX=0;exitY=0.5;exitDx=0;exitDy=0;" parent="WIyWlLk6GJQsqaUBKTNV-1" source="mqPW916UplCSB3VOztNP-26" edge="1">
          <mxGeometry relative="1" as="geometry">
            <mxPoint x="30" y="-850" as="targetPoint" />
            <Array as="points">
              <mxPoint x="50" y="-850" />
              <mxPoint x="50" y="-850" />
            </Array>
          </mxGeometry>
        </mxCell>
        <mxCell id="mqPW916UplCSB3VOztNP-25" value="start()" style="edgeLabel;html=1;align=center;verticalAlign=middle;resizable=0;points=[];" parent="mqPW916UplCSB3VOztNP-24" vertex="1" connectable="0">
          <mxGeometry x="0.1307" y="-1" relative="1" as="geometry">
            <mxPoint x="-21" y="-9" as="offset" />
          </mxGeometry>
        </mxCell>
        <mxCell id="mqPW916UplCSB3VOztNP-26" value="Read from camera&lt;div&gt;&lt;span style=&quot;font-size: 11px; text-wrap-mode: nowrap; background-color: rgb(255, 255, 255);&quot;&gt;status = waiting&lt;/span&gt;&lt;/div&gt;" style="rounded=1;whiteSpace=wrap;html=1;fontSize=12;glass=0;strokeWidth=1;shadow=0;" parent="WIyWlLk6GJQsqaUBKTNV-1" vertex="1">
          <mxGeometry x="99.97" y="-870" width="120" height="40" as="geometry" />
        </mxCell>
        <mxCell id="mqPW916UplCSB3VOztNP-27" value="No" style="rounded=0;html=1;jettySize=auto;orthogonalLoop=1;fontSize=11;endArrow=block;endFill=0;endSize=8;strokeWidth=1;shadow=0;labelBackgroundColor=none;edgeStyle=orthogonalEdgeStyle;entryX=0;entryY=0.5;entryDx=0;entryDy=0;" parent="WIyWlLk6GJQsqaUBKTNV-1" source="mqPW916UplCSB3VOztNP-29" target="mqPW916UplCSB3VOztNP-38" edge="1">
          <mxGeometry x="-0.0714" y="10" relative="1" as="geometry">
            <mxPoint as="offset" />
            <mxPoint x="410" y="-850" as="targetPoint" />
          </mxGeometry>
        </mxCell>
        <mxCell id="mqPW916UplCSB3VOztNP-41" value="" style="edgeStyle=orthogonalEdgeStyle;rounded=0;orthogonalLoop=1;jettySize=auto;html=1;" parent="WIyWlLk6GJQsqaUBKTNV-1" source="mqPW916UplCSB3VOztNP-29" target="mqPW916UplCSB3VOztNP-40" edge="1">
          <mxGeometry relative="1" as="geometry" />
        </mxCell>
        <mxCell id="mqPW916UplCSB3VOztNP-42" value="Yes" style="edgeLabel;html=1;align=center;verticalAlign=middle;resizable=0;points=[];" parent="mqPW916UplCSB3VOztNP-41" vertex="1" connectable="0">
          <mxGeometry x="-0.5823" y="-1" relative="1" as="geometry">
            <mxPoint x="21" as="offset" />
          </mxGeometry>
        </mxCell>
        <mxCell id="mqPW916UplCSB3VOztNP-29" value="&lt;font&gt;Found QR Code?&lt;/font&gt;" style="rhombus;whiteSpace=wrap;html=1;shadow=0;fontFamily=Helvetica;fontSize=12;align=center;strokeWidth=1;spacing=6;spacingTop=-4;" parent="WIyWlLk6GJQsqaUBKTNV-1" vertex="1">
          <mxGeometry x="250" y="-890" width="100" height="80" as="geometry" />
        </mxCell>
        <mxCell id="mqPW916UplCSB3VOztNP-43" style="edgeStyle=orthogonalEdgeStyle;rounded=0;orthogonalLoop=1;jettySize=auto;html=1;entryX=0.5;entryY=0;entryDx=0;entryDy=0;exitX=0.5;exitY=0;exitDx=0;exitDy=0;" parent="WIyWlLk6GJQsqaUBKTNV-1" source="mqPW916UplCSB3VOztNP-38" target="mqPW916UplCSB3VOztNP-26" edge="1">
          <mxGeometry relative="1" as="geometry">
            <Array as="points">
              <mxPoint x="460" y="-920" />
              <mxPoint x="160" y="-920" />
            </Array>
          </mxGeometry>
        </mxCell>
        <mxCell id="mqPW916UplCSB3VOztNP-44" value="No" style="edgeLabel;html=1;align=center;verticalAlign=middle;resizable=0;points=[];" parent="mqPW916UplCSB3VOztNP-43" vertex="1" connectable="0">
          <mxGeometry x="0.1262" y="-1" relative="1" as="geometry">
            <mxPoint x="-6" y="-9" as="offset" />
          </mxGeometry>
        </mxCell>
        <mxCell id="mqPW916UplCSB3VOztNP-46" value="" style="edgeStyle=orthogonalEdgeStyle;rounded=0;orthogonalLoop=1;jettySize=auto;html=1;" parent="WIyWlLk6GJQsqaUBKTNV-1" source="mqPW916UplCSB3VOztNP-38" target="mqPW916UplCSB3VOztNP-45" edge="1">
          <mxGeometry relative="1" as="geometry" />
        </mxCell>
        <mxCell id="mqPW916UplCSB3VOztNP-47" value="Yes" style="edgeLabel;html=1;align=center;verticalAlign=middle;resizable=0;points=[];" parent="mqPW916UplCSB3VOztNP-46" vertex="1" connectable="0">
          <mxGeometry x="0.1018" y="-1" relative="1" as="geometry">
            <mxPoint y="-9" as="offset" />
          </mxGeometry>
        </mxCell>
        <mxCell id="mqPW916UplCSB3VOztNP-38" value="&lt;font&gt;Has file to&lt;/font&gt;&lt;div&gt;&lt;font&gt;send?&lt;/font&gt;&lt;/div&gt;" style="rhombus;whiteSpace=wrap;html=1;shadow=0;fontFamily=Helvetica;fontSize=12;align=center;strokeWidth=1;spacing=6;spacingTop=-4;" parent="WIyWlLk6GJQsqaUBKTNV-1" vertex="1">
          <mxGeometry x="410" y="-890" width="100" height="80" as="geometry" />
        </mxCell>
        <mxCell id="mqPW916UplCSB3VOztNP-40" value="Receive file flow" style="rounded=1;whiteSpace=wrap;html=1;fontSize=12;glass=0;strokeWidth=1;shadow=0;" parent="WIyWlLk6GJQsqaUBKTNV-1" vertex="1">
          <mxGeometry x="240" y="-780" width="120" height="40" as="geometry" />
        </mxCell>
        <mxCell id="mqPW916UplCSB3VOztNP-51" value="" style="edgeStyle=orthogonalEdgeStyle;rounded=0;orthogonalLoop=1;jettySize=auto;html=1;" parent="WIyWlLk6GJQsqaUBKTNV-1" source="mqPW916UplCSB3VOztNP-45" target="mqPW916UplCSB3VOztNP-50" edge="1">
          <mxGeometry relative="1" as="geometry" />
        </mxCell>
        <mxCell id="mqPW916UplCSB3VOztNP-45" value="&lt;div&gt;&lt;span style=&quot;font-size: 11px; text-wrap-mode: nowrap; background-color: rgb(255, 255, 255);&quot;&gt;Show QR code&lt;/span&gt;&lt;/div&gt;&lt;div&gt;&lt;span style=&quot;font-size: 11px; text-wrap-mode: nowrap; background-color: rgb(255, 255, 255);&quot;&gt;status = waiting to send&lt;/span&gt;&lt;/div&gt;" style="rounded=1;whiteSpace=wrap;html=1;fontSize=12;glass=0;strokeWidth=1;shadow=0;" parent="WIyWlLk6GJQsqaUBKTNV-1" vertex="1">
          <mxGeometry x="550" y="-870" width="120" height="40" as="geometry" />
        </mxCell>
        <mxCell id="mqPW916UplCSB3VOztNP-52" style="edgeStyle=orthogonalEdgeStyle;rounded=0;orthogonalLoop=1;jettySize=auto;html=1;entryX=0.5;entryY=1;entryDx=0;entryDy=0;" parent="WIyWlLk6GJQsqaUBKTNV-1" target="mqPW916UplCSB3VOztNP-26" edge="1">
          <mxGeometry relative="1" as="geometry">
            <mxPoint x="750.0003030303033" y="-820.0242424242424" as="sourcePoint" />
            <mxPoint x="160" y="-810" as="targetPoint" />
            <Array as="points">
              <mxPoint x="750" y="-730" />
              <mxPoint x="160" y="-730" />
            </Array>
          </mxGeometry>
        </mxCell>
        <mxCell id="mqPW916UplCSB3VOztNP-53" value="No" style="edgeLabel;html=1;align=center;verticalAlign=middle;resizable=0;points=[];" parent="mqPW916UplCSB3VOztNP-52" vertex="1" connectable="0">
          <mxGeometry x="-0.3977" y="-4" relative="1" as="geometry">
            <mxPoint x="128" y="-56" as="offset" />
          </mxGeometry>
        </mxCell>
        <mxCell id="mqPW916UplCSB3VOztNP-55" value="" style="edgeStyle=orthogonalEdgeStyle;rounded=0;orthogonalLoop=1;jettySize=auto;html=1;" parent="WIyWlLk6GJQsqaUBKTNV-1" source="mqPW916UplCSB3VOztNP-50" target="mqPW916UplCSB3VOztNP-54" edge="1">
          <mxGeometry relative="1" as="geometry" />
        </mxCell>
        <mxCell id="mqPW916UplCSB3VOztNP-56" value="Yes" style="edgeLabel;html=1;align=center;verticalAlign=middle;resizable=0;points=[];" parent="mqPW916UplCSB3VOztNP-55" vertex="1" connectable="0">
          <mxGeometry x="-0.4045" y="1" relative="1" as="geometry">
            <mxPoint y="-9" as="offset" />
          </mxGeometry>
        </mxCell>
        <mxCell id="mqPW916UplCSB3VOztNP-50" value="&lt;font style=&quot;font-size: 11px;&quot;&gt;Send file&lt;/font&gt;&lt;div&gt;&lt;font style=&quot;font-size: 11px;&quot;&gt;acknowledged?&lt;/font&gt;&lt;/div&gt;" style="rhombus;whiteSpace=wrap;html=1;shadow=0;fontFamily=Helvetica;fontSize=12;align=center;strokeWidth=1;spacing=6;spacingTop=-4;" parent="WIyWlLk6GJQsqaUBKTNV-1" vertex="1">
          <mxGeometry x="700" y="-890" width="100" height="80" as="geometry" />
        </mxCell>
        <mxCell id="mqPW916UplCSB3VOztNP-58" value="" style="edgeStyle=orthogonalEdgeStyle;rounded=0;orthogonalLoop=1;jettySize=auto;html=1;" parent="WIyWlLk6GJQsqaUBKTNV-1" source="mqPW916UplCSB3VOztNP-54" target="mqPW916UplCSB3VOztNP-57" edge="1">
          <mxGeometry relative="1" as="geometry" />
        </mxCell>
        <mxCell id="mqPW916UplCSB3VOztNP-54" value="&lt;div&gt;&lt;span style=&quot;background-color: rgb(255, 255, 255); font-size: 11px; text-wrap-mode: nowrap;&quot;&gt;Send file loop&lt;/span&gt;&lt;/div&gt;&lt;div&gt;&lt;span style=&quot;background-color: rgb(255, 255, 255); font-size: 11px; text-wrap-mode: nowrap;&quot;&gt;status = sent data&lt;/span&gt;&lt;/div&gt;" style="rounded=1;whiteSpace=wrap;html=1;fontSize=12;glass=0;strokeWidth=1;shadow=0;" parent="WIyWlLk6GJQsqaUBKTNV-1" vertex="1">
          <mxGeometry x="840" y="-870" width="120" height="40" as="geometry" />
        </mxCell>
        <mxCell id="mqPW916UplCSB3VOztNP-59" style="edgeStyle=orthogonalEdgeStyle;rounded=0;orthogonalLoop=1;jettySize=auto;html=1;entryX=1;entryY=0.5;entryDx=0;entryDy=0;exitX=1;exitY=0.5;exitDx=0;exitDy=0;" parent="WIyWlLk6GJQsqaUBKTNV-1" source="mqPW916UplCSB3VOztNP-57" target="mqPW916UplCSB3VOztNP-54" edge="1">
          <mxGeometry relative="1" as="geometry">
            <Array as="points">
              <mxPoint x="990" y="-760" />
              <mxPoint x="990" y="-850" />
            </Array>
          </mxGeometry>
        </mxCell>
        <mxCell id="mqPW916UplCSB3VOztNP-60" value="No" style="edgeLabel;html=1;align=center;verticalAlign=middle;resizable=0;points=[];" parent="mqPW916UplCSB3VOztNP-59" vertex="1" connectable="0">
          <mxGeometry x="-0.1719" y="2" relative="1" as="geometry">
            <mxPoint x="-18" y="6" as="offset" />
          </mxGeometry>
        </mxCell>
        <mxCell id="mqPW916UplCSB3VOztNP-62" value="" style="edgeStyle=orthogonalEdgeStyle;rounded=0;orthogonalLoop=1;jettySize=auto;html=1;" parent="WIyWlLk6GJQsqaUBKTNV-1" source="mqPW916UplCSB3VOztNP-57" target="mqPW916UplCSB3VOztNP-61" edge="1">
          <mxGeometry relative="1" as="geometry" />
        </mxCell>
        <mxCell id="mqPW916UplCSB3VOztNP-63" value="Yes" style="edgeLabel;html=1;align=center;verticalAlign=middle;resizable=0;points=[];" parent="mqPW916UplCSB3VOztNP-62" vertex="1" connectable="0">
          <mxGeometry x="-0.2818" y="-1" relative="1" as="geometry">
            <mxPoint as="offset" />
          </mxGeometry>
        </mxCell>
        <mxCell id="mqPW916UplCSB3VOztNP-57" value="&lt;span style=&quot;font-size: 11px;&quot;&gt;Finished to&amp;nbsp;&lt;/span&gt;&lt;div&gt;&lt;span style=&quot;font-size: 11px;&quot;&gt;send file?&lt;/span&gt;&lt;/div&gt;" style="rhombus;whiteSpace=wrap;html=1;shadow=0;fontFamily=Helvetica;fontSize=12;align=center;strokeWidth=1;spacing=6;spacingTop=-4;" parent="WIyWlLk6GJQsqaUBKTNV-1" vertex="1">
          <mxGeometry x="850" y="-800" width="100" height="80" as="geometry" />
        </mxCell>
        <mxCell id="mqPW916UplCSB3VOztNP-64" style="edgeStyle=orthogonalEdgeStyle;rounded=0;orthogonalLoop=1;jettySize=auto;html=1;endArrow=none;endFill=0;entryX=0.5;entryY=1;entryDx=0;entryDy=0;" parent="WIyWlLk6GJQsqaUBKTNV-1" source="mqPW916UplCSB3VOztNP-61" target="mqPW916UplCSB3VOztNP-26" edge="1">
          <mxGeometry relative="1" as="geometry">
            <mxPoint x="160" y="-750" as="targetPoint" />
          </mxGeometry>
        </mxCell>
        <mxCell id="mqPW916UplCSB3VOztNP-61" value="&lt;div&gt;&lt;span style=&quot;font-size: 11px; text-wrap-mode: nowrap; background-color: rgb(255, 255, 255);&quot;&gt;Wait for finish ack&lt;/span&gt;&lt;/div&gt;&lt;div&gt;&lt;span style=&quot;font-size: 11px; text-wrap-mode: nowrap; background-color: rgb(255, 255, 255);&quot;&gt;status = finished&lt;/span&gt;&lt;/div&gt;" style="rounded=1;whiteSpace=wrap;html=1;fontSize=12;glass=0;strokeWidth=1;shadow=0;" parent="WIyWlLk6GJQsqaUBKTNV-1" vertex="1">
          <mxGeometry x="840" y="-680" width="120" height="40" as="geometry" />
        </mxCell>
      </root>
    </mxGraphModel>
  </diagram>
</mxfile>
